<?xml version="1.0" encoding="UTF-8" standalone="no"?>
<!-- Created with Inkscape (http://www.inkscape.org/) -->

<svg
   xmlns:dc="http://purl.org/dc/elements/1.1/"
   xmlns:cc="http://creativecommons.org/ns#"
   xmlns:rdf="http://www.w3.org/1999/02/22-rdf-syntax-ns#"
   xmlns:svg="http://www.w3.org/2000/svg"
   xmlns="http://www.w3.org/2000/svg"
   xmlns:sodipodi="http://sodipodi.sourceforge.net/DTD/sodipodi-0.dtd"
   xmlns:inkscape="http://www.inkscape.org/namespaces/inkscape"
   width="400"
   height="600"
   id="svg3991"
   version="1.1"
   inkscape:version="0.48.1 "
   sodipodi:docname="New document 3">
  <defs
     id="defs3993" />
  <sodipodi:namedview
     id="base"
     pagecolor="#ffffff"
     bordercolor="#666666"
     borderopacity="1.0"
     inkscape:pageopacity="0.0"
     inkscape:pageshadow="2"
     inkscape:zoom="0.7"
     inkscape:cx="-49.378614"
     inkscape:cy="278.62983"
     inkscape:document-units="px"
     inkscape:current-layer="layer1"
     showgrid="false"
     inkscape:window-width="1378"
     inkscape:window-height="878"
     inkscape:window-x="54"
     inkscape:window-y="-8"
     inkscape:window-maximized="1"
     fit-margin-top="0"
     fit-margin-left="0"
     fit-margin-right="0"
     fit-margin-bottom="0" />
  <metadata
     id="metadata3996">
    <rdf:RDF>
      <cc:Work
         rdf:about="">
        <dc:format>image/svg+xml</dc:format>
        <dc:type
           rdf:resource="http://purl.org/dc/dcmitype/StillImage" />
        <dc:title></dc:title>
      </cc:Work>
    </rdf:RDF>
  </metadata>
  <g
     inkscape:label="Layer 1"
     inkscape:groupmode="layer"
     id="layer1"
     transform="translate(-136.28574,-156.11505)">
    <path
       style="fill:#ffffff;fill-opacity:1;stroke:#000000;stroke-width:10.39999962;stroke-linecap:butt;stroke-linejoin:miter;stroke-miterlimit:4;stroke-opacity:1;stroke-dasharray:none"
       d="m 204.28571,410.93361 c -53.8997,19.88948 -72.63643,-81.53892 -27.14285,-104.28571 7.54837,-3.77419 41.42857,-0.0905 41.42857,12.85714 0,0.10655 -11.67397,-16.69586 -12.85714,-21.42857 -4.20163,-16.8065 -4.53825,-60.04405 15.71428,-68.57143 24.25928,-10.21444 63.8931,8.96405 52.85714,20 -4.3358,4.3358 4.39152,-28.455 7.14286,-32.85714 10.28076,-16.44922 30.53708,-40.15345 50,-45.71429 37.51271,-10.71792 37.76096,61.2362 32.85714,51.42857 -15.50246,-31.00492 72.84707,-82.89242 90,-22.85714 3.60137,12.60477 -7.14285,21.71265 -7.14285,31.42857 0,8.51836 14.66654,-9.0884 22.85714,-11.42857 19.74524,-5.6415 38.32631,-3.34739 48.57143,17.14286 18.52693,37.05386 -21.42857,75.20821 -21.42857,81.42857 0,3.36717 6.73336,0.61191 10,1.42857 7.64594,1.91148 13.65185,5.87513 17.14285,12.85714 10.65437,21.30874 0.0819,47.41481 -20,58.57143 -16.12019,8.95567 -38.97346,13.8519 -55.71428,4.28572 C 446.5373,394.05696 424.30782,372.36218 430,372.36218 c 29.32517,0 -10.51567,88.03794 -57.14286,82.85715 -18.97507,-2.10835 -38.51789,-10.38697 -48.57143,-27.14286 -8.94959,-14.916 10,-23.07841 10,-12.85714 0,20.4201 -17.55588,40.70565 -34.28571,50 -29.75213,16.52896 -79.88866,-5.27836 -64.28571,-44.28572"
       id="path4025"
       inkscape:connector-curvature="0" />
    <g
       id="g4543"
       transform="translate(-88.571433,-101.42857)">
      <path
         sodipodi:nodetypes="cssc"
         inkscape:connector-curvature="0"
         id="path4539"
         d="m 375.12255,648.54193 c 0,0 -5.90555,19.96565 -0.19126,28.53707 5.71428,8.57143 18.283,5.28318 18.283,-4.71682 0,-10 -18.09174,-23.82025 -18.09174,-23.82025 z"
         style="fill:#c0feff;fill-opacity:1;stroke:#040055;stroke-width:2.5;stroke-linecap:butt;stroke-linejoin:miter;stroke-miterlimit:4;stroke-opacity:1;stroke-dasharray:none" />
      <path
         sodipodi:nodetypes="sssss"
         inkscape:connector-curvature="0"
         id="path4541"
         d="m 383.6977,669.04777 c -0.72997,-1.20763 2.16266,-3.07904 3.05552,-2.7219 0.89286,0.35714 3.33158,6.08412 2.43872,6.44126 -0.89285,0.35714 -3.14599,1.6169 -3.52995,0.38779 -0.44008,-1.40877 -0.86487,-2.28834 -1.96429,-4.10715 z"
         style="fill:#e0ffff;fill-opacity:1;stroke:#000000;stroke-width:1;stroke-linecap:butt;stroke-linejoin:miter;stroke-miterlimit:4;stroke-opacity:1;stroke-dasharray:none" />
    </g>
    <g
       transform="translate(50,-167.14286)"
       id="g4547">
      <path
         style="fill:#c0feff;fill-opacity:1;stroke:#040055;stroke-width:2.5;stroke-linecap:butt;stroke-linejoin:miter;stroke-miterlimit:4;stroke-opacity:1;stroke-dasharray:none"
         d="m 375.12255,648.54193 c 0,0 -5.90555,19.96565 -0.19126,28.53707 5.71428,8.57143 18.283,5.28318 18.283,-4.71682 0,-10 -18.09174,-23.82025 -18.09174,-23.82025 z"
         id="path4549"
         inkscape:connector-curvature="0"
         sodipodi:nodetypes="cssc" />
      <path
         style="fill:#e0ffff;fill-opacity:1;stroke:#000000;stroke-width:1;stroke-linecap:butt;stroke-linejoin:miter;stroke-miterlimit:4;stroke-opacity:1;stroke-dasharray:none"
         d="m 383.6977,669.04777 c -0.72997,-1.20763 2.16266,-3.07904 3.05552,-2.7219 0.89286,0.35714 3.33158,6.08412 2.43872,6.44126 -0.89285,0.35714 -3.14599,1.6169 -3.52995,0.38779 -0.44008,-1.40877 -0.86487,-2.28834 -1.96429,-4.10715 z"
         id="path4551"
         inkscape:connector-curvature="0"
         sodipodi:nodetypes="sssss" />
    </g>
    <g
       id="g4553"
       transform="translate(-58.571433,-31.428572)">
      <path
         sodipodi:nodetypes="cssc"
         inkscape:connector-curvature="0"
         id="path4555"
         d="m 375.12255,648.54193 c 0,0 -5.90555,19.96565 -0.19126,28.53707 5.71428,8.57143 18.283,5.28318 18.283,-4.71682 0,-10 -18.09174,-23.82025 -18.09174,-23.82025 z"
         style="fill:#c0feff;fill-opacity:1;stroke:#040055;stroke-width:2.5;stroke-linecap:butt;stroke-linejoin:miter;stroke-miterlimit:4;stroke-opacity:1;stroke-dasharray:none" />
      <path
         sodipodi:nodetypes="sssss"
         inkscape:connector-curvature="0"
         id="path4557"
         d="m 383.6977,669.04777 c -0.72997,-1.20763 2.16266,-3.07904 3.05552,-2.7219 0.89286,0.35714 3.33158,6.08412 2.43872,6.44126 -0.89285,0.35714 -3.14599,1.6169 -3.52995,0.38779 -0.44008,-1.40877 -0.86487,-2.28834 -1.96429,-4.10715 z"
         style="fill:#e0ffff;fill-opacity:1;stroke:#000000;stroke-width:1;stroke-linecap:butt;stroke-linejoin:miter;stroke-miterlimit:4;stroke-opacity:1;stroke-dasharray:none" />
    </g>
    <g
       transform="translate(14.285714,-112.85714)"
       id="g4559">
      <path
         style="fill:#c0feff;fill-opacity:1;stroke:#040055;stroke-width:2.5;stroke-linecap:butt;stroke-linejoin:miter;stroke-miterlimit:4;stroke-opacity:1;stroke-dasharray:none"
         d="m 375.12255,648.54193 c 0,0 -5.90555,19.96565 -0.19126,28.53707 5.71428,8.57143 18.283,5.28318 18.283,-4.71682 0,-10 -18.09174,-23.82025 -18.09174,-23.82025 z"
         id="path4561"
         inkscape:connector-curvature="0"
         sodipodi:nodetypes="cssc" />
      <path
         style="fill:#e0ffff;fill-opacity:1;stroke:#000000;stroke-width:1;stroke-linecap:butt;stroke-linejoin:miter;stroke-miterlimit:4;stroke-opacity:1;stroke-dasharray:none"
         d="m 383.6977,669.04777 c -0.72997,-1.20763 2.16266,-3.07904 3.05552,-2.7219 0.89286,0.35714 3.33158,6.08412 2.43872,6.44126 -0.89285,0.35714 -3.14599,1.6169 -3.52995,0.38779 -0.44008,-1.40877 -0.86487,-2.28834 -1.96429,-4.10715 z"
         id="path4563"
         inkscape:connector-curvature="0"
         sodipodi:nodetypes="sssss" />
    </g>
    <g
       transform="translate(62.857142,-61.428571)"
       id="g4565">
      <path
         style="fill:#c0feff;fill-opacity:1;stroke:#040055;stroke-width:2.5;stroke-linecap:butt;stroke-linejoin:miter;stroke-miterlimit:4;stroke-opacity:1;stroke-dasharray:none"
         d="m 375.12255,648.54193 c 0,0 -5.90555,19.96565 -0.19126,28.53707 5.71428,8.57143 18.283,5.28318 18.283,-4.71682 0,-10 -18.09174,-23.82025 -18.09174,-23.82025 z"
         id="path4567"
         inkscape:connector-curvature="0"
         sodipodi:nodetypes="cssc" />
      <path
         style="fill:#e0ffff;fill-opacity:1;stroke:#000000;stroke-width:1;stroke-linecap:butt;stroke-linejoin:miter;stroke-miterlimit:4;stroke-opacity:1;stroke-dasharray:none"
         d="m 383.6977,669.04777 c -0.72997,-1.20763 2.16266,-3.07904 3.05552,-2.7219 0.89286,0.35714 3.33158,6.08412 2.43872,6.44126 -0.89285,0.35714 -3.14599,1.6169 -3.52995,0.38779 -0.44008,-1.40877 -0.86487,-2.28834 -1.96429,-4.10715 z"
         id="path4569"
         inkscape:connector-curvature="0"
         sodipodi:nodetypes="sssss" />
    </g>
    <g
       id="g4571"
       transform="translate(-42.857143,-145.71429)">
      <path
         sodipodi:nodetypes="cssc"
         inkscape:connector-curvature="0"
         id="path4573"
         d="m 375.12255,648.54193 c 0,0 -5.90555,19.96565 -0.19126,28.53707 5.71428,8.57143 18.283,5.28318 18.283,-4.71682 0,-10 -18.09174,-23.82025 -18.09174,-23.82025 z"
         style="fill:#c0feff;fill-opacity:1;stroke:#040055;stroke-width:2.5;stroke-linecap:butt;stroke-linejoin:miter;stroke-miterlimit:4;stroke-opacity:1;stroke-dasharray:none" />
      <path
         sodipodi:nodetypes="sssss"
         inkscape:connector-curvature="0"
         id="path4575"
         d="m 383.6977,669.04777 c -0.72997,-1.20763 2.16266,-3.07904 3.05552,-2.7219 0.89286,0.35714 3.33158,6.08412 2.43872,6.44126 -0.89285,0.35714 -3.14599,1.6169 -3.52995,0.38779 -0.44008,-1.40877 -0.86487,-2.28834 -1.96429,-4.10715 z"
         style="fill:#e0ffff;fill-opacity:1;stroke:#000000;stroke-width:1;stroke-linecap:butt;stroke-linejoin:miter;stroke-miterlimit:4;stroke-opacity:1;stroke-dasharray:none" />
    </g>
    <g
       transform="translate(1.6773168e-7,-24.285718)"
       id="g4577">
      <path
         style="fill:#c0feff;fill-opacity:1;stroke:#040055;stroke-width:2.5;stroke-linecap:butt;stroke-linejoin:miter;stroke-miterlimit:4;stroke-opacity:1;stroke-dasharray:none"
         d="m 375.12255,648.54193 c 0,0 -5.90555,19.96565 -0.19126,28.53707 5.71428,8.57143 18.283,5.28318 18.283,-4.71682 0,-10 -18.09174,-23.82025 -18.09174,-23.82025 z"
         id="path4579"
         inkscape:connector-curvature="0"
         sodipodi:nodetypes="cssc" />
      <path
         style="fill:#e0ffff;fill-opacity:1;stroke:#000000;stroke-width:1;stroke-linecap:butt;stroke-linejoin:miter;stroke-miterlimit:4;stroke-opacity:1;stroke-dasharray:none"
         d="m 383.6977,669.04777 c -0.72997,-1.20763 2.16266,-3.07904 3.05552,-2.7219 0.89286,0.35714 3.33158,6.08412 2.43872,6.44126 -0.89285,0.35714 -3.14599,1.6169 -3.52995,0.38779 -0.44008,-1.40877 -0.86487,-2.28834 -1.96429,-4.10715 z"
         id="path4581"
         inkscape:connector-curvature="0"
         sodipodi:nodetypes="sssss" />
    </g>
    <g
       id="g4583"
       transform="translate(122.85714,-67.142858)">
      <path
         sodipodi:nodetypes="cssc"
         inkscape:connector-curvature="0"
         id="path4585"
         d="m 375.12255,648.54193 c 0,0 -5.90555,19.96565 -0.19126,28.53707 5.71428,8.57143 18.283,5.28318 18.283,-4.71682 0,-10 -18.09174,-23.82025 -18.09174,-23.82025 z"
         style="fill:#c0feff;fill-opacity:1;stroke:#040055;stroke-width:2.5;stroke-linecap:butt;stroke-linejoin:miter;stroke-miterlimit:4;stroke-opacity:1;stroke-dasharray:none" />
      <path
         sodipodi:nodetypes="sssss"
         inkscape:connector-curvature="0"
         id="path4587"
         d="m 383.6977,669.04777 c -0.72997,-1.20763 2.16266,-3.07904 3.05552,-2.7219 0.89286,0.35714 3.33158,6.08412 2.43872,6.44126 -0.89285,0.35714 -3.14599,1.6169 -3.52995,0.38779 -0.44008,-1.40877 -0.86487,-2.28834 -1.96429,-4.10715 z"
         style="fill:#e0ffff;fill-opacity:1;stroke:#000000;stroke-width:1;stroke-linecap:butt;stroke-linejoin:miter;stroke-miterlimit:4;stroke-opacity:1;stroke-dasharray:none" />
    </g>
    <g
       transform="translate(138.57143,-162.85714)"
       id="g4589">
      <path
         style="fill:#c0feff;fill-opacity:1;stroke:#040055;stroke-width:2.5;stroke-linecap:butt;stroke-linejoin:miter;stroke-miterlimit:4;stroke-opacity:1;stroke-dasharray:none"
         d="m 375.12255,648.54193 c 0,0 -5.90555,19.96565 -0.19126,28.53707 5.71428,8.57143 18.283,5.28318 18.283,-4.71682 0,-10 -18.09174,-23.82025 -18.09174,-23.82025 z"
         id="path4591"
         inkscape:connector-curvature="0"
         sodipodi:nodetypes="cssc" />
      <path
         style="fill:#e0ffff;fill-opacity:1;stroke:#000000;stroke-width:1;stroke-linecap:butt;stroke-linejoin:miter;stroke-miterlimit:4;stroke-opacity:1;stroke-dasharray:none"
         d="m 383.6977,669.04777 c -0.72997,-1.20763 2.16266,-3.07904 3.05552,-2.7219 0.89286,0.35714 3.33158,6.08412 2.43872,6.44126 -0.89285,0.35714 -3.14599,1.6169 -3.52995,0.38779 -0.44008,-1.40877 -0.86487,-2.28834 -1.96429,-4.10715 z"
         id="path4593"
         inkscape:connector-curvature="0"
         sodipodi:nodetypes="sssss" />
    </g>
    <g
       id="g4595"
       transform="translate(47.142857,29.999992)">
      <path
         sodipodi:nodetypes="cssc"
         inkscape:connector-curvature="0"
         id="path4597"
         d="m 375.12255,648.54193 c 0,0 -5.90555,19.96565 -0.19126,28.53707 5.71428,8.57143 18.283,5.28318 18.283,-4.71682 0,-10 -18.09174,-23.82025 -18.09174,-23.82025 z"
         style="fill:#c0feff;fill-opacity:1;stroke:#040055;stroke-width:2.5;stroke-linecap:butt;stroke-linejoin:miter;stroke-miterlimit:4;stroke-opacity:1;stroke-dasharray:none" />
      <path
         sodipodi:nodetypes="sssss"
         inkscape:connector-curvature="0"
         id="path4599"
         d="m 383.6977,669.04777 c -0.72997,-1.20763 2.16266,-3.07904 3.05552,-2.7219 0.89286,0.35714 3.33158,6.08412 2.43872,6.44126 -0.89285,0.35714 -3.14599,1.6169 -3.52995,0.38779 -0.44008,-1.40877 -0.86487,-2.28834 -1.96429,-4.10715 z"
         style="fill:#e0ffff;fill-opacity:1;stroke:#000000;stroke-width:1;stroke-linecap:butt;stroke-linejoin:miter;stroke-miterlimit:4;stroke-opacity:1;stroke-dasharray:none" />
    </g>
    <g
       transform="translate(-57.142853,31.428562)"
       id="g4601">
      <path
         style="fill:#c0feff;fill-opacity:1;stroke:#040055;stroke-width:2.5;stroke-linecap:butt;stroke-linejoin:miter;stroke-miterlimit:4;stroke-opacity:1;stroke-dasharray:none"
         d="m 375.12255,648.54193 c 0,0 -5.90555,19.96565 -0.19126,28.53707 5.71428,8.57143 18.283,5.28318 18.283,-4.71682 0,-10 -18.09174,-23.82025 -18.09174,-23.82025 z"
         id="path4603"
         inkscape:connector-curvature="0"
         sodipodi:nodetypes="cssc" />
      <path
         style="fill:#e0ffff;fill-opacity:1;stroke:#000000;stroke-width:1;stroke-linecap:butt;stroke-linejoin:miter;stroke-miterlimit:4;stroke-opacity:1;stroke-dasharray:none"
         d="m 383.6977,669.04777 c -0.72997,-1.20763 2.16266,-3.07904 3.05552,-2.7219 0.89286,0.35714 3.33158,6.08412 2.43872,6.44126 -0.89285,0.35714 -3.14599,1.6169 -3.52995,0.38779 -0.44008,-1.40877 -0.86487,-2.28834 -1.96429,-4.10715 z"
         id="path4605"
         inkscape:connector-curvature="0"
         sodipodi:nodetypes="sssss" />
    </g>
    <g
       id="g4607"
       transform="translate(-11.428572,65.714275)">
      <path
         sodipodi:nodetypes="cssc"
         inkscape:connector-curvature="0"
         id="path4609"
         d="m 375.12255,648.54193 c 0,0 -5.90555,19.96565 -0.19126,28.53707 5.71428,8.57143 18.283,5.28318 18.283,-4.71682 0,-10 -18.09174,-23.82025 -18.09174,-23.82025 z"
         style="fill:#c0feff;fill-opacity:1;stroke:#040055;stroke-width:2.5;stroke-linecap:butt;stroke-linejoin:miter;stroke-miterlimit:4;stroke-opacity:1;stroke-dasharray:none" />
      <path
         sodipodi:nodetypes="sssss"
         inkscape:connector-curvature="0"
         id="path4611"
         d="m 383.6977,669.04777 c -0.72997,-1.20763 2.16266,-3.07904 3.05552,-2.7219 0.89286,0.35714 3.33158,6.08412 2.43872,6.44126 -0.89285,0.35714 -3.14599,1.6169 -3.52995,0.38779 -0.44008,-1.40877 -0.86487,-2.28834 -1.96429,-4.10715 z"
         style="fill:#e0ffff;fill-opacity:1;stroke:#000000;stroke-width:1;stroke-linecap:butt;stroke-linejoin:miter;stroke-miterlimit:4;stroke-opacity:1;stroke-dasharray:none" />
    </g>
    <g
       transform="translate(128.57144,24.285702)"
       id="g4613">
      <path
         style="fill:#c0feff;fill-opacity:1;stroke:#040055;stroke-width:2.5;stroke-linecap:butt;stroke-linejoin:miter;stroke-miterlimit:4;stroke-opacity:1;stroke-dasharray:none"
         d="m 375.12255,648.54193 c 0,0 -5.90555,19.96565 -0.19126,28.53707 5.71428,8.57143 18.283,5.28318 18.283,-4.71682 0,-10 -18.09174,-23.82025 -18.09174,-23.82025 z"
         id="path4615"
         inkscape:connector-curvature="0"
         sodipodi:nodetypes="cssc" />
      <path
         style="fill:#e0ffff;fill-opacity:1;stroke:#000000;stroke-width:1;stroke-linecap:butt;stroke-linejoin:miter;stroke-miterlimit:4;stroke-opacity:1;stroke-dasharray:none"
         d="m 383.6977,669.04777 c -0.72997,-1.20763 2.16266,-3.07904 3.05552,-2.7219 0.89286,0.35714 3.33158,6.08412 2.43872,6.44126 -0.89285,0.35714 -3.14599,1.6169 -3.52995,0.38779 -0.44008,-1.40877 -0.86487,-2.28834 -1.96429,-4.10715 z"
         id="path4617"
         inkscape:connector-curvature="0"
         sodipodi:nodetypes="sssss" />
    </g>
  </g>
</svg>
