<?xml version="1.0" encoding="UTF-8" standalone="no"?>
<!-- Created with Inkscape (http://www.inkscape.org/) -->

<svg
   xmlns:dc="http://purl.org/dc/elements/1.1/"
   xmlns:cc="http://creativecommons.org/ns#"
   xmlns:rdf="http://www.w3.org/1999/02/22-rdf-syntax-ns#"
   xmlns:svg="http://www.w3.org/2000/svg"
   xmlns="http://www.w3.org/2000/svg"
   xmlns:sodipodi="http://sodipodi.sourceforge.net/DTD/sodipodi-0.dtd"
   xmlns:inkscape="http://www.inkscape.org/namespaces/inkscape"
   width="494.28571"
   height="45.653542"
   id="svg4619"
   version="1.1"
   inkscape:version="0.48.1 "
   sodipodi:docname="dirt.svg">
  <defs
     id="defs4621" />
  <sodipodi:namedview
     id="base"
     pagecolor="#ffffff"
     bordercolor="#666666"
     borderopacity="1.0"
     inkscape:pageopacity="0.0"
     inkscape:pageshadow="2"
     inkscape:zoom="0.21166724"
     inkscape:cx="1375.2315"
     inkscape:cy="-139.26102"
     inkscape:document-units="px"
     inkscape:current-layer="layer1"
     showgrid="false"
     inkscape:window-width="967"
     inkscape:window-height="597"
     inkscape:window-x="87"
     inkscape:window-y="25"
     inkscape:window-maximized="0"
     fit-margin-top="0"
     fit-margin-left="0"
     fit-margin-right="0"
     fit-margin-bottom="0" />
  <metadata
     id="metadata4624">
    <rdf:RDF>
      <cc:Work
         rdf:about="">
        <dc:format>image/svg+xml</dc:format>
        <dc:type
           rdf:resource="http://purl.org/dc/dcmitype/StillImage" />
      </cc:Work>
    </rdf:RDF>
  </metadata>
  <g
     inkscape:label="Layer 1"
     inkscape:groupmode="layer"
     id="layer1"
     transform="translate(-111.42857,-637.58753)">
    <path
       id="path4637"
       style="fill:#9c6400;fill-opacity:1;stroke:none"
       d="m 605.71429,649.5199 0,33.72117 -494.28572,0 0,-28.02174 0.55212,-1.65638 c 2.15265,-12.02925 20.26034,-0.0721 25.93465,-5.74645 28.91719,-28.91719 20.60348,13.61084 47.79895,4.54568 23.62393,-7.87464 31.76539,-19.66317 51.42857,0 0.9506,0.9506 12.3672,-2.46504 17.74202,-1.76777 3.45777,0.44858 5.48379,4.52112 10.75018,8.72988 3.63247,2.90298 7.73624,-6.96211 25.79351,-6.96211 15.32927,0 20.32193,5.71429 37.14286,5.71429 10.13524,0 27.02702,-7.95467 35.20178,-3.86729 4.20731,2.10365 9.59919,3.79081 11.52265,5.71428 0.9108,0.9108 12.2348,-4.70413 16.13271,-4.70413 11.49626,0 51.3459,5.03208 54.36494,4.02573 11.98404,-3.99468 19.65406,-14.034 30.67096,-9.39339 23.35082,9.83597 35.7506,-5.3707 46.39267,-8.91806 16.96957,-5.65653 32.50822,16.60304 42.85715,11.42857 12.91201,-6.456 28.77998,-14.70849 39.74746,-3.74102 z"
       inkscape:connector-curvature="0"
       sodipodi:nodetypes="cccccsssssssssssssscc" />
  </g>
</svg>
